<?xml version="1.0" encoding="UTF-8" standalone="no"?>
<!DOCTYPE svg PUBLIC "-//W3C//DTD SVG 1.1//EN" "http://www.w3.org/Graphics/SVG/1.1/DTD/svg11.dtd">
<svg width="100%" height="100%" viewBox="0 0 2602 500" version="1.1" xmlns="http://www.w3.org/2000/svg" xmlns:xlink="http://www.w3.org/1999/xlink" xml:space="preserve" xmlns:serif="http://www.serif.com/" style="fill-rule:evenodd;clip-rule:evenodd;stroke-linecap:round;stroke-linejoin:round;stroke-miterlimit:1.5;">
    <g transform="matrix(1,0,0,1,-8430,0)">
        <g id="Artboard4" transform="matrix(1,0,0,1,-0.333333,0)">
            <rect x="8430.33" y="0" width="2602" height="500" style="fill:none;"/>
            <g transform="matrix(1.49281,0,0,1.49281,-11498,-1760.92)">
                <g transform="matrix(1,0,0,1,-47.2934,-1428.61)">
                    <g>
                        <g transform="matrix(1,0,0,1,12500.9,2077.63)">
                            <g transform="matrix(0.874938,0,0,0.09656,984.038,646.102)">
                                <path d="M327.623,1087.41L240.874,327.775L240.874,1087.41L210.701,1087.41L210.701,0L240.874,0L327.623,759.631L327.623,0L357.797,0L357.797,1087.41L327.623,1087.41Z" style="fill:white;fill-rule:nonzero;"/>
                            </g>
                            <g transform="matrix(0.874938,0,0,0.09656,984.038,646.102)">
                                <path d="M522.551,543.703C522.551,500.207 521.665,459.041 519.894,420.205C518.122,381.369 515.379,347.711 511.665,319.231C507.95,290.752 503.293,268.227 497.692,251.657C492.092,235.087 485.463,226.802 477.805,226.802L425.687,226.802L425.687,860.605L477.805,860.605C485.463,860.605 492.092,852.32 497.692,835.75C503.293,819.18 507.95,796.655 511.665,768.175C515.379,739.695 518.122,706.037 519.894,667.202C521.665,628.366 522.551,587.199 522.551,543.703ZM554.268,543.703C554.268,618.268 552.582,688.691 549.21,754.971C545.839,821.251 540.924,878.987 534.466,928.179C528.009,977.371 520.094,1016.21 510.722,1044.69C501.35,1073.17 490.606,1087.41 478.491,1087.41L395.514,1087.41L395.514,0L478.491,0C490.606,0 501.35,14.24 510.722,42.72C520.094,71.199 528.009,110.035 534.466,159.227C540.924,208.42 545.839,266.156 549.21,332.436C552.582,398.716 554.268,469.138 554.268,543.703Z" style="fill:white;fill-rule:nonzero;"/>
                            </g>
                            <g transform="matrix(0.874938,0,0,0.09656,984.038,646.102)">
                                <path d="M884.462,357.291C884.462,331.4 883.948,310.429 882.919,294.376C881.891,278.324 880.634,265.897 879.148,257.094C877.662,248.291 876.148,242.336 874.605,239.229C873.062,236.123 871.833,234.569 870.919,234.569L797.713,234.569L797.713,481.566L870.919,481.566C871.604,481.566 872.69,479.753 874.176,476.129C875.662,472.504 877.176,466.031 878.719,456.711C880.262,447.39 881.605,434.704 882.748,418.651C883.891,402.599 884.462,382.146 884.462,357.291ZM914.636,357.291C914.636,404.929 913.95,446.872 912.579,483.119C911.207,519.366 909.407,550.694 907.178,577.102C904.95,603.511 902.435,625.518 899.635,643.123C896.835,660.729 894.006,674.71 891.149,685.066L912.064,1087.41L879.834,1087.41L860.632,716.135L797.713,716.135L797.713,1087.41L767.54,1087.41L767.54,0L875.376,0C878.576,0 882.434,5.178 886.948,15.534C891.463,25.891 895.778,44.273 899.892,70.681C904.007,97.09 907.493,133.337 910.35,179.422C913.207,225.507 914.636,284.797 914.636,357.291Z" style="fill:white;fill-rule:nonzero;"/>
                            </g>
                            <g transform="matrix(0.874938,0,0,0.09656,984.038,646.102)">
                                <path d="M1088.48,736.33C1088.48,790.182 1086.88,840.928 1083.68,888.566C1080.48,936.205 1075.56,977.889 1068.93,1013.62C1062.3,1049.35 1054.02,1077.31 1044.07,1097.5C1034.13,1117.7 1022.36,1127.8 1008.76,1127.8C1001.78,1127.8 994.642,1122.62 987.327,1112.26C981.041,1103.98 974.126,1091.03 966.583,1073.42C959.039,1055.82 951.724,1030.45 944.638,997.307L955.096,779.826C961.382,808.823 967.697,831.348 974.04,847.4C980.384,863.452 986.127,875.103 991.27,882.353C997.328,890.638 1003.16,895.298 1008.76,896.334C1025.9,896.334 1038.67,882.353 1047.07,854.391C1055.47,826.429 1059.67,789.664 1059.67,744.097C1059.67,715.099 1058.36,693.869 1055.73,680.406C1053.1,666.943 1049.05,659.175 1043.56,657.104C1042.3,656.069 1039.93,654.774 1036.44,653.221C1032.96,651.667 1028.7,649.855 1023.67,647.784C1018.64,645.712 1013.04,643.641 1006.87,641.57C1000.7,639.499 994.299,636.909 987.67,633.803C981.041,630.696 974.955,622.411 969.411,608.948C963.868,595.484 959.068,576.067 955.01,550.694C950.953,525.321 947.781,494.252 945.495,457.487C943.209,420.723 942.067,377.485 942.067,327.775C942.067,278.065 943.867,231.203 947.467,187.189C951.067,143.175 956.21,104.857 962.897,72.235C969.583,39.613 977.698,13.981 987.241,-4.66C996.785,-23.302 1007.44,-32.622 1019.22,-32.622C1026.19,-32.622 1033.27,-27.962 1040.47,-18.641C1046.64,-10.356 1053.53,1.553 1061.13,17.088C1068.73,32.622 1076.13,55.406 1083.33,85.439L1074.25,299.813C1070.7,286.35 1066.7,273.405 1062.25,260.978C1057.79,248.55 1053.13,237.676 1048.27,228.355C1043.42,219.035 1038.5,211.785 1033.53,206.607C1028.56,201.429 1023.79,198.84 1019.22,198.84C1012.36,198.84 1005.99,201.688 1000.1,207.384C994.213,213.08 989.098,221.624 984.755,233.016C980.412,244.408 977.012,258.388 974.555,274.958C972.097,291.528 970.869,310.17 970.869,330.882C970.869,357.808 972.126,378.003 974.64,391.466C977.155,404.929 980.869,412.697 985.784,414.768C991.27,416.839 998.985,419.946 1008.93,424.089C1018.87,428.231 1030.64,432.891 1044.25,438.069C1051.1,441.176 1057.25,449.461 1062.67,462.924C1068.1,476.388 1072.73,495.547 1076.56,520.402C1080.39,545.257 1083.33,575.808 1085.39,612.054C1087.45,648.301 1088.48,689.726 1088.48,736.33Z" style="fill:white;fill-rule:nonzero;"/>
                            </g>
                            <g transform="matrix(0.874938,0,0,0.09656,984.038,646.102)">
                                <path d="M1242.43,543.703C1242.43,497.1 1241.43,452.827 1239.43,410.884C1237.43,368.941 1234.4,331.918 1230.34,299.813C1226.29,267.709 1221.2,242.336 1215.09,223.695C1208.97,205.054 1201.86,195.733 1193.74,195.733C1185.63,195.733 1178.51,205.054 1172.4,223.695C1166.28,242.336 1161.2,267.709 1157.14,299.813C1153.08,331.918 1150.05,368.941 1148.05,410.884C1146.05,452.827 1145.05,497.1 1145.05,543.703C1145.05,590.306 1146.05,634.579 1148.05,676.522C1150.05,718.465 1153.08,755.489 1157.14,787.593C1161.2,819.697 1166.28,845.07 1172.4,863.711C1178.51,882.353 1185.63,891.673 1193.74,891.673C1201.86,891.673 1208.97,882.353 1215.09,863.711C1221.2,845.07 1226.29,819.697 1230.34,787.593C1234.4,755.489 1237.43,718.465 1239.43,676.522C1241.43,634.579 1242.43,590.306 1242.43,543.703ZM1274.15,543.703C1274.15,622.411 1272.32,696.717 1268.66,766.622C1265,836.526 1259.72,897.887 1252.8,950.704C1245.89,1003.52 1237.46,1045.46 1227.52,1076.53C1217.57,1107.6 1206.31,1123.14 1193.74,1123.14C1181.17,1123.14 1169.91,1107.6 1159.97,1076.53C1150.02,1045.46 1141.6,1003.52 1134.68,950.704C1127.77,897.887 1122.48,836.526 1118.82,766.622C1115.16,696.717 1113.34,622.411 1113.34,543.703C1113.34,464.996 1115.16,390.69 1118.82,320.785C1122.48,250.88 1127.77,189.519 1134.68,136.703C1141.6,83.886 1150.02,41.943 1159.97,10.874C1169.91,-20.195 1181.17,-35.729 1193.74,-35.729C1206.31,-35.729 1217.57,-20.195 1227.52,10.874C1237.46,41.943 1245.89,83.886 1252.8,136.703C1259.72,189.519 1265,250.88 1268.66,320.785C1272.32,390.69 1274.15,464.996 1274.15,543.703Z" style="fill:white;fill-rule:nonzero;"/>
                            </g>
                            <g transform="matrix(0.874938,0,0,0.09656,984.038,646.102)">
                                <path d="M1422.79,1087.41L1336.04,327.775L1336.04,1087.41L1305.86,1087.41L1305.86,0L1336.04,0L1422.79,759.631L1422.79,0L1452.96,0L1452.96,1087.41L1422.79,1087.41Z" style="fill:white;fill-rule:nonzero;"/>
                            </g>
                            <g transform="matrix(1,0,0,1,-223.026,-596.776)">
                                <rect x="1719.02" y="1284.32" width="127.05" height="22.564" style="fill:white;"/>
                            </g>
                            <g transform="matrix(0.0277757,0,0,0.104198,984.707,646.102)">
                                <path d="M3024.22,188.584L2160.16,588.785L3888.29,588.785L3024.22,188.584ZM4790.16,1007.7L4352.72,806.16L1690.33,806.16L1252.89,1007.7L243.018,1007.7L2413.98,0L3629.07,0L5800.03,1007.7L4790.16,1007.7Z" style="fill:white;fill-rule:nonzero;"/>
                            </g>
                        </g>
                        <g transform="matrix(0.150399,0,0,0.09656,14852.6,2725.33)">
                            <path d="M109.708,1087.41L109.708,0L285.242,0L285.242,852.837L904.595,852.837L904.595,1087.41L109.708,1087.41Z" style="fill:white;fill-rule:nonzero;"/>
                            <rect x="1099.08" y="0" width="175.533" height="1087.41" style="fill:white;fill-rule:nonzero;"/>
                        </g>
                    </g>
                    <g transform="matrix(1,0,0,1,12277.8,1439.64)">
                        <rect x="1719.02" y="1284.32" width="127.05" height="22.564" style="fill:white;"/>
                        <g transform="matrix(1,0,0,1,0,82.4362)">
                            <rect x="1719.02" y="1284.32" width="127.05" height="22.564" style="fill:white;"/>
                        </g>
                    </g>
                </g>
                <g transform="matrix(1,0,0,1,-47.0655,-903.398)">
                    <g transform="matrix(1,0,0,0.758968,0.333333,505.574)">
                        <path d="M14059.8,2147.76L14059.8,2097.53" style="fill:none;stroke:url(#_Linear1);stroke-width:20.83px;"/>
                    </g>
                    <g transform="matrix(1,0,0,-0.758968,0.333333,3995.36)">
                        <path d="M14059.8,2147.76L14059.8,2097.53" style="fill:none;stroke:url(#_Linear2);stroke-width:20.83px;"/>
                    </g>
                    <g transform="matrix(1,0,0,1,0.333333,17.3899)">
                        <path d="M13981.6,2135.65L13947.7,2099.2" style="fill:none;stroke:url(#_Linear3);stroke-width:20.83px;"/>
                    </g>
                    <g transform="matrix(1,0,0,-1,0.333333,4483.54)">
                        <path d="M13981.6,2135.65L13947.7,2099.2" style="fill:none;stroke:url(#_Linear4);stroke-width:20.83px;"/>
                    </g>
                    <g transform="matrix(-1,0,0,1,28116,18.2248)">
                        <path d="M13981.6,2135.65L13947.7,2099.2" style="fill:none;stroke:url(#_Linear5);stroke-width:20.83px;"/>
                    </g>
                    <g transform="matrix(-1,0,0,-1,28116,4482.71)">
                        <path d="M13981.6,2135.65L13947.7,2099.2" style="fill:none;stroke:url(#_Linear6);stroke-width:20.83px;"/>
                    </g>
                </g>
            </g>
        </g>
    </g>
    <defs>
        <linearGradient id="_Linear1" x1="0" y1="0" x2="1" y2="0" gradientUnits="userSpaceOnUse" gradientTransform="matrix(112.081,0,0,50.2253,13947.7,2122.65)"><stop offset="0" style="stop-color:rgb(84,61,133);stop-opacity:1"/><stop offset="0.49" style="stop-color:rgb(228,66,41);stop-opacity:1"/><stop offset="1" style="stop-color:rgb(235,86,57);stop-opacity:1"/></linearGradient>
        <linearGradient id="_Linear2" x1="0" y1="0" x2="1" y2="0" gradientUnits="userSpaceOnUse" gradientTransform="matrix(112.081,0,0,50.2253,13947.7,2122.65)"><stop offset="0" style="stop-color:rgb(84,61,133);stop-opacity:1"/><stop offset="0.49" style="stop-color:rgb(228,66,41);stop-opacity:1"/><stop offset="1" style="stop-color:rgb(235,86,57);stop-opacity:1"/></linearGradient>
        <linearGradient id="_Linear3" x1="0" y1="0" x2="1" y2="0" gradientUnits="userSpaceOnUse" gradientTransform="matrix(112.081,0,0,50.2253,13947.7,2122.65)"><stop offset="0" style="stop-color:rgb(84,61,133);stop-opacity:1"/><stop offset="0.49" style="stop-color:rgb(228,66,41);stop-opacity:1"/><stop offset="1" style="stop-color:rgb(235,86,57);stop-opacity:1"/></linearGradient>
        <linearGradient id="_Linear4" x1="0" y1="0" x2="1" y2="0" gradientUnits="userSpaceOnUse" gradientTransform="matrix(112.081,0,0,50.2253,13947.7,2122.65)"><stop offset="0" style="stop-color:rgb(84,61,133);stop-opacity:1"/><stop offset="0.49" style="stop-color:rgb(228,66,41);stop-opacity:1"/><stop offset="1" style="stop-color:rgb(235,86,57);stop-opacity:1"/></linearGradient>
        <linearGradient id="_Linear5" x1="0" y1="0" x2="1" y2="0" gradientUnits="userSpaceOnUse" gradientTransform="matrix(112.081,0,0,50.2253,13947.7,2122.65)"><stop offset="0" style="stop-color:rgb(84,61,133);stop-opacity:1"/><stop offset="0.49" style="stop-color:rgb(228,66,41);stop-opacity:1"/><stop offset="1" style="stop-color:rgb(235,86,57);stop-opacity:1"/></linearGradient>
        <linearGradient id="_Linear6" x1="0" y1="0" x2="1" y2="0" gradientUnits="userSpaceOnUse" gradientTransform="matrix(112.081,0,0,50.2253,13947.7,2122.65)"><stop offset="0" style="stop-color:rgb(84,61,133);stop-opacity:1"/><stop offset="0.49" style="stop-color:rgb(228,66,41);stop-opacity:1"/><stop offset="1" style="stop-color:rgb(235,86,57);stop-opacity:1"/></linearGradient>
    </defs>
</svg>
