<?xml version="1.0" encoding="UTF-8" standalone="no"?>
<!DOCTYPE svg PUBLIC "-//W3C//DTD SVG 1.1//EN" "http://www.w3.org/Graphics/SVG/1.1/DTD/svg11.dtd">
<svg width="100%" height="100%" viewBox="0 0 1920 1300" version="1.1" xmlns="http://www.w3.org/2000/svg" xmlns:xlink="http://www.w3.org/1999/xlink" xml:space="preserve" xmlns:serif="http://www.serif.com/" style="fill-rule:evenodd;clip-rule:evenodd;stroke-linejoin:round;stroke-miterlimit:2;">
    <g transform="matrix(1.17054,0,0,1.53597,49.3818,831.463)">
        <rect x="0" y="0" width="982.492" height="268.986" style="fill:rgb(67,67,65);"/>
    </g>
    <g transform="matrix(1,0,0,1,49.3818,36.8226)">
        <rect x="0" y="0" width="982.492" height="268.986"/>
    </g>
    <rect x="0" y="0" width="982.492" height="268.986" style="fill:rgb(255,138,0);"/>
    <g transform="matrix(1.17054,0,0,1.53597,0,788.24)">
        <rect x="0" y="0" width="982.492" height="268.986"/>
    </g>
    <g transform="matrix(0.426773,0,0,1.10534,38.3505,403.409)">
        <rect x="0" y="0" width="982.492" height="268.986"/>
    </g>
    <g transform="matrix(0.426773,0,0,1.10534,0,361.591)">
        <rect x="0" y="0" width="982.492" height="268.986" style="fill:rgb(223,53,38);"/>
    </g>
    <g transform="matrix(0.679064,0,0,1.01638,1166.86,119.017)">
        <rect x="0" y="0" width="982.492" height="268.986"/>
    </g>
    <g transform="matrix(0.72884,0,0,1.01638,1203.92,79.6345)">
        <rect x="0" y="0" width="982.492" height="268.986" style="fill:rgb(223,53,38);"/>
    </g>
    <g transform="matrix(1.32599,0,0,1.01638,552.628,474.969)">
        <rect x="0" y="0" width="982.492" height="268.986"/>
    </g>
    <g transform="matrix(1.35813,0,0,1.01638,585.65,440.413)">
        <rect x="0" y="0" width="982.492" height="268.986" style="fill:rgb(255,138,0);"/>
    </g>
    <g transform="matrix(1,0,0,1,-81.7044,-451.938)">
        <g transform="matrix(150,0,0,150,201.007,639.751)">
            <path d="M0.125,-0.026L0.489,-0.026L0.489,0L0.098,0L0.098,-0.711L0.125,-0.711L0.125,-0.026Z" style="fill:white;fill-rule:nonzero;"/>
        </g>
        <g transform="matrix(150,0,0,150,278.424,639.751)">
            <rect x="0.117" y="-0.711" width="0.026" height="0.711" style="fill:white;fill-rule:nonzero;"/>
        </g>
        <g transform="matrix(150,0,0,150,317.535,639.751)">
            <path d="M0.488,-0.35L0.124,-0.35L0.124,0L0.098,0L0.098,-0.711L0.538,-0.711L0.538,-0.685L0.124,-0.685L0.124,-0.377L0.488,-0.377L0.488,-0.35Z" style="fill:white;fill-rule:nonzero;"/>
        </g>
        <g transform="matrix(150,0,0,150,403.375,639.751)">
            <path d="M0.48,-0.357L0.124,-0.357L0.124,-0.026L0.53,-0.026L0.53,0L0.098,0L0.098,-0.711L0.53,-0.711L0.53,-0.685L0.124,-0.685L0.124,-0.384L0.48,-0.384L0.48,-0.357Z" style="fill:white;fill-rule:nonzero;"/>
        </g>
        <g transform="matrix(150,0,0,150,524.664,639.751)">
            <rect x="0.117" y="-0.711" width="0.026" height="0.711" style="fill:white;fill-rule:nonzero;"/>
        </g>
        <g transform="matrix(150,0,0,150,563.775,639.751)">
            <path d="M0.524,-0.17C0.524,-0.215 0.508,-0.251 0.475,-0.277C0.443,-0.304 0.386,-0.328 0.305,-0.351C0.224,-0.372 0.165,-0.397 0.127,-0.425C0.09,-0.453 0.071,-0.493 0.071,-0.547C0.071,-0.6 0.093,-0.642 0.137,-0.674C0.181,-0.705 0.238,-0.721 0.307,-0.721C0.376,-0.721 0.433,-0.702 0.477,-0.663C0.521,-0.624 0.542,-0.575 0.541,-0.514L0.54,-0.511L0.517,-0.511C0.517,-0.564 0.498,-0.608 0.458,-0.643C0.419,-0.677 0.369,-0.695 0.307,-0.695C0.242,-0.695 0.191,-0.68 0.154,-0.652C0.116,-0.623 0.097,-0.588 0.097,-0.548C0.097,-0.507 0.113,-0.474 0.144,-0.447C0.175,-0.421 0.231,-0.397 0.313,-0.376C0.391,-0.355 0.451,-0.33 0.491,-0.3C0.531,-0.269 0.551,-0.227 0.551,-0.171C0.551,-0.115 0.528,-0.071 0.482,-0.038C0.437,-0.006 0.379,0.01 0.31,0.01C0.239,0.01 0.177,-0.006 0.126,-0.04C0.075,-0.073 0.05,-0.126 0.051,-0.197L0.052,-0.2L0.074,-0.2C0.074,-0.136 0.098,-0.089 0.146,-0.06C0.193,-0.031 0.248,-0.016 0.31,-0.016C0.373,-0.016 0.424,-0.03 0.464,-0.059C0.504,-0.088 0.524,-0.125 0.524,-0.17Z" style="fill:white;fill-rule:nonzero;"/>
        </g>
        <g transform="matrix(150,0,0,150,689.239,639.751)">
            <path d="M0.571,-0.685L0.312,-0.685L0.312,0L0.286,0L0.286,-0.685L0.027,-0.685L0.027,-0.711L0.571,-0.711L0.571,-0.685Z" style="fill:white;fill-rule:nonzero;"/>
        </g>
        <g transform="matrix(150,0,0,150,776.837,639.751)">
            <path d="M0.601,-0.302C0.601,-0.206 0.577,-0.13 0.53,-0.074C0.482,-0.018 0.417,0.01 0.333,0.01C0.25,0.01 0.184,-0.018 0.136,-0.074C0.089,-0.13 0.065,-0.206 0.065,-0.302L0.065,-0.409C0.065,-0.504 0.089,-0.58 0.136,-0.637C0.183,-0.693 0.249,-0.721 0.333,-0.721C0.416,-0.721 0.481,-0.693 0.529,-0.637C0.577,-0.58 0.601,-0.504 0.601,-0.409L0.601,-0.302ZM0.575,-0.41C0.575,-0.497 0.554,-0.566 0.512,-0.618C0.47,-0.669 0.41,-0.695 0.333,-0.695C0.255,-0.695 0.196,-0.669 0.154,-0.618C0.113,-0.566 0.092,-0.497 0.092,-0.41L0.092,-0.302C0.092,-0.214 0.113,-0.145 0.155,-0.093C0.196,-0.042 0.256,-0.016 0.333,-0.016C0.411,-0.016 0.471,-0.042 0.512,-0.093C0.554,-0.144 0.575,-0.214 0.575,-0.302L0.575,-0.41Z" style="fill:white;fill-rule:nonzero;"/>
        </g>
        <g transform="matrix(150,0,0,150,876.739,639.751)">
            <path d="M0.601,-0.302C0.601,-0.206 0.577,-0.13 0.53,-0.074C0.482,-0.018 0.417,0.01 0.333,0.01C0.25,0.01 0.184,-0.018 0.136,-0.074C0.089,-0.13 0.065,-0.206 0.065,-0.302L0.065,-0.409C0.065,-0.504 0.089,-0.58 0.136,-0.637C0.183,-0.693 0.249,-0.721 0.333,-0.721C0.416,-0.721 0.481,-0.693 0.529,-0.637C0.577,-0.58 0.601,-0.504 0.601,-0.409L0.601,-0.302ZM0.575,-0.41C0.575,-0.497 0.554,-0.566 0.512,-0.618C0.47,-0.669 0.41,-0.695 0.333,-0.695C0.255,-0.695 0.196,-0.669 0.154,-0.618C0.113,-0.566 0.092,-0.497 0.092,-0.41L0.092,-0.302C0.092,-0.214 0.113,-0.145 0.155,-0.093C0.196,-0.042 0.256,-0.016 0.333,-0.016C0.411,-0.016 0.471,-0.042 0.512,-0.093C0.554,-0.144 0.575,-0.214 0.575,-0.302L0.575,-0.41Z" style="fill:white;fill-rule:nonzero;"/>
        </g>
    </g>
    <g transform="matrix(1.53597,0,0,1.53597,-234.768,86.235)">
        <g transform="matrix(135.636,0,0,135.636,201.007,639.751)">
            <path d="M0.124,-0.305L0.124,0L0.098,0L0.098,-0.711L0.32,-0.711C0.393,-0.711 0.45,-0.692 0.49,-0.656C0.529,-0.619 0.549,-0.569 0.549,-0.508C0.549,-0.446 0.53,-0.397 0.49,-0.36C0.45,-0.324 0.394,-0.305 0.32,-0.305L0.124,-0.305ZM0.124,-0.332L0.32,-0.332C0.387,-0.332 0.438,-0.348 0.472,-0.382C0.506,-0.415 0.523,-0.457 0.523,-0.507C0.523,-0.559 0.506,-0.601 0.472,-0.635C0.438,-0.668 0.388,-0.685 0.32,-0.685L0.124,-0.685L0.124,-0.332Z" style="fill:white;fill-rule:nonzero;"/>
        </g>
        <g transform="matrix(135.636,0,0,135.636,282.468,639.751)">
            <path d="M0.122,-0.333L0.122,0L0.095,0L0.095,-0.71L0.322,-0.71C0.397,-0.71 0.454,-0.694 0.495,-0.662C0.535,-0.629 0.555,-0.582 0.555,-0.52C0.555,-0.48 0.542,-0.444 0.517,-0.411C0.491,-0.378 0.456,-0.357 0.412,-0.347C0.463,-0.338 0.5,-0.32 0.522,-0.291C0.544,-0.262 0.555,-0.226 0.555,-0.181L0.555,-0.114C0.555,-0.092 0.558,-0.072 0.563,-0.055C0.569,-0.037 0.577,-0.023 0.59,-0.012L0.59,0L0.564,0C0.552,-0.013 0.543,-0.029 0.538,-0.049C0.532,-0.069 0.529,-0.091 0.529,-0.115L0.529,-0.18C0.529,-0.228 0.512,-0.266 0.479,-0.293C0.446,-0.32 0.399,-0.333 0.338,-0.333L0.122,-0.333ZM0.122,-0.36L0.317,-0.36C0.389,-0.36 0.443,-0.375 0.477,-0.406C0.512,-0.436 0.529,-0.474 0.529,-0.52C0.529,-0.573 0.511,-0.614 0.477,-0.642C0.442,-0.67 0.39,-0.684 0.322,-0.684L0.122,-0.684L0.122,-0.36Z" style="fill:white;fill-rule:nonzero;"/>
        </g>
        <g transform="matrix(135.636,0,0,135.636,371.215,639.751)">
            <path d="M0.601,-0.302C0.601,-0.206 0.577,-0.13 0.53,-0.074C0.482,-0.018 0.417,0.01 0.333,0.01C0.25,0.01 0.184,-0.018 0.136,-0.074C0.089,-0.13 0.065,-0.206 0.065,-0.302L0.065,-0.409C0.065,-0.504 0.089,-0.58 0.136,-0.637C0.183,-0.693 0.249,-0.721 0.333,-0.721C0.416,-0.721 0.481,-0.693 0.529,-0.637C0.577,-0.58 0.601,-0.504 0.601,-0.409L0.601,-0.302ZM0.575,-0.41C0.575,-0.497 0.554,-0.566 0.512,-0.618C0.47,-0.669 0.41,-0.695 0.333,-0.695C0.255,-0.695 0.196,-0.669 0.154,-0.618C0.113,-0.566 0.092,-0.497 0.092,-0.41L0.092,-0.302C0.092,-0.214 0.113,-0.145 0.155,-0.093C0.196,-0.042 0.256,-0.016 0.333,-0.016C0.411,-0.016 0.471,-0.042 0.512,-0.093C0.554,-0.144 0.575,-0.214 0.575,-0.302L0.575,-0.41Z" style="fill:white;fill-rule:nonzero;"/>
        </g>
        <g transform="matrix(135.636,0,0,135.636,461.551,639.751)">
            <path d="M0.428,-0.711L0.454,-0.711L0.454,-0.206C0.454,-0.14 0.435,-0.087 0.398,-0.048C0.361,-0.009 0.313,0.01 0.254,0.01C0.189,0.01 0.138,-0.007 0.101,-0.042C0.063,-0.076 0.045,-0.126 0.047,-0.193L0.048,-0.196L0.07,-0.196C0.07,-0.138 0.086,-0.093 0.118,-0.063C0.149,-0.032 0.195,-0.016 0.254,-0.016C0.304,-0.016 0.346,-0.033 0.378,-0.067C0.411,-0.102 0.428,-0.148 0.428,-0.206L0.428,-0.711Z" style="fill:white;fill-rule:nonzero;"/>
        </g>
        <g transform="matrix(135.636,0,0,135.636,536.058,639.751)">
            <path d="M0.48,-0.357L0.124,-0.357L0.124,-0.026L0.53,-0.026L0.53,0L0.098,0L0.098,-0.711L0.53,-0.711L0.53,-0.685L0.124,-0.685L0.124,-0.384L0.48,-0.384L0.48,-0.357Z" style="fill:white;fill-rule:nonzero;"/>
        </g>
        <g transform="matrix(135.636,0,0,135.636,613.281,639.751)">
            <path d="M0.572,-0.218L0.573,-0.215C0.575,-0.142 0.552,-0.086 0.507,-0.048C0.462,-0.009 0.402,0.01 0.328,0.01C0.25,0.01 0.188,-0.018 0.141,-0.076C0.094,-0.133 0.07,-0.209 0.07,-0.302L0.07,-0.409C0.07,-0.502 0.094,-0.577 0.141,-0.635C0.188,-0.692 0.25,-0.721 0.328,-0.721C0.402,-0.721 0.462,-0.702 0.507,-0.663C0.552,-0.624 0.575,-0.569 0.573,-0.497L0.572,-0.494L0.55,-0.494C0.55,-0.558 0.53,-0.608 0.49,-0.643C0.45,-0.677 0.396,-0.695 0.328,-0.695C0.258,-0.695 0.202,-0.669 0.16,-0.616C0.118,-0.564 0.097,-0.495 0.097,-0.41L0.097,-0.302C0.097,-0.216 0.118,-0.147 0.16,-0.094C0.202,-0.042 0.258,-0.016 0.328,-0.016C0.396,-0.016 0.45,-0.033 0.49,-0.066C0.53,-0.1 0.55,-0.15 0.55,-0.218L0.572,-0.218Z" style="fill:white;fill-rule:nonzero;"/>
        </g>
        <g transform="matrix(135.636,0,0,135.636,699.246,639.751)">
            <path d="M0.571,-0.685L0.312,-0.685L0.312,0L0.286,0L0.286,-0.685L0.027,-0.685L0.027,-0.711L0.571,-0.711L0.571,-0.685Z" style="fill:white;fill-rule:nonzero;"/>
        </g>
        <g transform="matrix(135.636,0,0,135.636,779.25,639.751)">
            <path d="M0.524,-0.17C0.524,-0.215 0.508,-0.251 0.475,-0.277C0.443,-0.304 0.386,-0.328 0.305,-0.351C0.224,-0.372 0.165,-0.397 0.127,-0.425C0.09,-0.453 0.071,-0.493 0.071,-0.547C0.071,-0.6 0.093,-0.642 0.137,-0.674C0.181,-0.705 0.238,-0.721 0.307,-0.721C0.376,-0.721 0.433,-0.702 0.477,-0.663C0.521,-0.624 0.542,-0.575 0.541,-0.514L0.54,-0.511L0.517,-0.511C0.517,-0.564 0.498,-0.608 0.458,-0.643C0.419,-0.677 0.369,-0.695 0.307,-0.695C0.242,-0.695 0.191,-0.68 0.154,-0.652C0.116,-0.623 0.097,-0.588 0.097,-0.548C0.097,-0.507 0.113,-0.474 0.144,-0.447C0.175,-0.421 0.231,-0.397 0.313,-0.376C0.391,-0.355 0.451,-0.33 0.491,-0.3C0.531,-0.269 0.551,-0.227 0.551,-0.171C0.551,-0.115 0.528,-0.071 0.482,-0.038C0.437,-0.006 0.379,0.01 0.31,0.01C0.239,0.01 0.177,-0.006 0.126,-0.04C0.075,-0.073 0.05,-0.126 0.051,-0.197L0.052,-0.2L0.074,-0.2C0.074,-0.136 0.098,-0.089 0.146,-0.06C0.193,-0.031 0.248,-0.016 0.31,-0.016C0.373,-0.016 0.424,-0.03 0.464,-0.059C0.504,-0.088 0.524,-0.125 0.524,-0.17Z" style="fill:white;fill-rule:nonzero;"/>
        </g>
    </g>
    <g transform="matrix(1.53597,0,0,1.53597,940.992,217.688)">
        <g transform="matrix(67.8182,0,0,67.8182,201.007,639.751)">
            <rect x="0.03" y="-0.319" width="0.229" height="0.026" style="fill:rgb(3,0,0);fill-rule:nonzero;"/>
        </g>
        <g transform="matrix(67.8182,0,0,67.8182,237.333,639.751)">
            <path d="M0.571,-0.685L0.312,-0.685L0.312,0L0.286,0L0.286,-0.685L0.027,-0.685L0.027,-0.711L0.571,-0.711L0.571,-0.685Z" style="fill:rgb(3,0,0);fill-rule:nonzero;"/>
        </g>
        <g transform="matrix(67.8182,0,0,67.8182,276.938,639.751)">
            <path d="M0.601,-0.302C0.601,-0.206 0.577,-0.13 0.53,-0.074C0.482,-0.018 0.417,0.01 0.333,0.01C0.25,0.01 0.184,-0.018 0.136,-0.074C0.089,-0.13 0.065,-0.206 0.065,-0.302L0.065,-0.409C0.065,-0.504 0.089,-0.58 0.136,-0.637C0.183,-0.693 0.249,-0.721 0.333,-0.721C0.416,-0.721 0.481,-0.693 0.529,-0.637C0.577,-0.58 0.601,-0.504 0.601,-0.409L0.601,-0.302ZM0.575,-0.41C0.575,-0.497 0.554,-0.566 0.512,-0.618C0.47,-0.669 0.41,-0.695 0.333,-0.695C0.255,-0.695 0.196,-0.669 0.154,-0.618C0.113,-0.566 0.092,-0.497 0.092,-0.41L0.092,-0.302C0.092,-0.214 0.113,-0.145 0.155,-0.093C0.196,-0.042 0.256,-0.016 0.333,-0.016C0.411,-0.016 0.471,-0.042 0.512,-0.093C0.554,-0.144 0.575,-0.214 0.575,-0.302L0.575,-0.41Z" style="fill:rgb(3,0,0);fill-rule:nonzero;"/>
        </g>
        <g transform="matrix(67.8182,0,0,67.8182,322.106,639.751)">
            <path d="M0.135,-0.711L0.426,-0.042L0.429,-0.042L0.721,-0.711L0.76,-0.711L0.76,0L0.733,0L0.733,-0.665L0.73,-0.666L0.438,0L0.417,0L0.127,-0.662L0.124,-0.661L0.124,0L0.098,0L0.098,-0.711L0.135,-0.711Z" style="fill:rgb(3,0,0);fill-rule:nonzero;"/>
        </g>
        <g transform="matrix(67.8182,0,0,67.8182,396.481,639.751)">
            <path d="M0.124,-0.305L0.124,0L0.098,0L0.098,-0.711L0.32,-0.711C0.393,-0.711 0.45,-0.692 0.49,-0.656C0.529,-0.619 0.549,-0.569 0.549,-0.508C0.549,-0.446 0.53,-0.397 0.49,-0.36C0.45,-0.324 0.394,-0.305 0.32,-0.305L0.124,-0.305ZM0.124,-0.332L0.32,-0.332C0.387,-0.332 0.438,-0.348 0.472,-0.382C0.506,-0.415 0.523,-0.457 0.523,-0.507C0.523,-0.559 0.506,-0.601 0.472,-0.635C0.438,-0.668 0.388,-0.685 0.32,-0.685L0.124,-0.685L0.124,-0.332Z" style="fill:rgb(3,0,0);fill-rule:nonzero;"/>
        </g>
        <g transform="matrix(67.8182,0,0,67.8182,437.211,639.751)">
            <path d="M0.48,-0.357L0.124,-0.357L0.124,-0.026L0.53,-0.026L0.53,0L0.098,0L0.098,-0.711L0.53,-0.711L0.53,-0.685L0.124,-0.685L0.124,-0.384L0.48,-0.384L0.48,-0.357Z" style="fill:rgb(3,0,0);fill-rule:nonzero;"/>
        </g>
        <g transform="matrix(67.8182,0,0,67.8182,476.485,639.751)">
            <path d="M0.571,-0.685L0.312,-0.685L0.312,0L0.286,0L0.286,-0.685L0.027,-0.685L0.027,-0.711L0.571,-0.711L0.571,-0.685Z" style="fill:rgb(3,0,0);fill-rule:nonzero;"/>
        </g>
        <g transform="matrix(67.8182,0,0,67.8182,517.017,639.751)">
            <path d="M0.48,-0.357L0.124,-0.357L0.124,-0.026L0.53,-0.026L0.53,0L0.098,0L0.098,-0.711L0.53,-0.711L0.53,-0.685L0.124,-0.685L0.124,-0.384L0.48,-0.384L0.48,-0.357Z" style="fill:rgb(3,0,0);fill-rule:nonzero;"/>
        </g>
        <g transform="matrix(67.8182,0,0,67.8182,555.628,639.751)">
            <path d="M0.122,-0.333L0.122,0L0.095,0L0.095,-0.71L0.322,-0.71C0.397,-0.71 0.454,-0.694 0.495,-0.662C0.535,-0.629 0.555,-0.582 0.555,-0.52C0.555,-0.48 0.542,-0.444 0.517,-0.411C0.491,-0.378 0.456,-0.357 0.412,-0.347C0.463,-0.338 0.5,-0.32 0.522,-0.291C0.544,-0.262 0.555,-0.226 0.555,-0.181L0.555,-0.114C0.555,-0.092 0.558,-0.072 0.563,-0.055C0.569,-0.037 0.577,-0.023 0.59,-0.012L0.59,0L0.564,0C0.552,-0.013 0.543,-0.029 0.538,-0.049C0.532,-0.069 0.529,-0.091 0.529,-0.115L0.529,-0.18C0.529,-0.228 0.512,-0.266 0.479,-0.293C0.446,-0.32 0.399,-0.333 0.338,-0.333L0.122,-0.333ZM0.122,-0.36L0.317,-0.36C0.389,-0.36 0.443,-0.375 0.477,-0.406C0.512,-0.436 0.529,-0.474 0.529,-0.52C0.529,-0.573 0.511,-0.614 0.477,-0.642C0.442,-0.67 0.39,-0.684 0.322,-0.684L0.122,-0.684L0.122,-0.36Z" style="fill:rgb(3,0,0);fill-rule:nonzero;"/>
        </g>
        <g transform="matrix(67.8182,0,0,67.8182,600.002,639.751)">
            <path d="M0.524,-0.17C0.524,-0.215 0.508,-0.251 0.475,-0.277C0.443,-0.304 0.386,-0.328 0.305,-0.351C0.224,-0.372 0.165,-0.397 0.127,-0.425C0.09,-0.453 0.071,-0.493 0.071,-0.547C0.071,-0.6 0.093,-0.642 0.137,-0.674C0.181,-0.705 0.238,-0.721 0.307,-0.721C0.376,-0.721 0.433,-0.702 0.477,-0.663C0.521,-0.624 0.542,-0.575 0.541,-0.514L0.54,-0.511L0.517,-0.511C0.517,-0.564 0.498,-0.608 0.458,-0.643C0.419,-0.677 0.369,-0.695 0.307,-0.695C0.242,-0.695 0.191,-0.68 0.154,-0.652C0.116,-0.623 0.097,-0.588 0.097,-0.548C0.097,-0.507 0.113,-0.474 0.144,-0.447C0.175,-0.421 0.231,-0.397 0.313,-0.376C0.391,-0.355 0.451,-0.33 0.491,-0.3C0.531,-0.269 0.551,-0.227 0.551,-0.171C0.551,-0.115 0.528,-0.071 0.482,-0.038C0.437,-0.006 0.379,0.01 0.31,0.01C0.239,0.01 0.177,-0.006 0.126,-0.04C0.075,-0.073 0.05,-0.126 0.051,-0.197L0.052,-0.2L0.074,-0.2C0.074,-0.136 0.098,-0.089 0.146,-0.06C0.193,-0.031 0.248,-0.016 0.31,-0.016C0.373,-0.016 0.424,-0.03 0.464,-0.059C0.504,-0.088 0.524,-0.125 0.524,-0.17Z" style="fill:rgb(3,0,0);fill-rule:nonzero;"/>
        </g>
    </g>
    <g transform="matrix(1,0,0,1,-427.711,-76.1797)">
        <g transform="matrix(150,0,0,150,499.908,639.751)">
            <path d="M0.488,-0.35L0.124,-0.35L0.124,0L0.098,0L0.098,-0.711L0.538,-0.711L0.538,-0.685L0.124,-0.685L0.124,-0.377L0.488,-0.377L0.488,-0.35Z" style="fill:white;fill-rule:nonzero;"/>
        </g>
        <g transform="matrix(150,0,0,150,585.748,639.751)">
            <path d="M0.601,-0.302C0.601,-0.206 0.577,-0.13 0.53,-0.074C0.482,-0.018 0.417,0.01 0.333,0.01C0.25,0.01 0.184,-0.018 0.136,-0.074C0.089,-0.13 0.065,-0.206 0.065,-0.302L0.065,-0.409C0.065,-0.504 0.089,-0.58 0.136,-0.637C0.183,-0.693 0.249,-0.721 0.333,-0.721C0.416,-0.721 0.481,-0.693 0.529,-0.637C0.577,-0.58 0.601,-0.504 0.601,-0.409L0.601,-0.302ZM0.575,-0.41C0.575,-0.497 0.554,-0.566 0.512,-0.618C0.47,-0.669 0.41,-0.695 0.333,-0.695C0.255,-0.695 0.196,-0.669 0.154,-0.618C0.113,-0.566 0.092,-0.497 0.092,-0.41L0.092,-0.302C0.092,-0.214 0.113,-0.145 0.155,-0.093C0.196,-0.042 0.256,-0.016 0.333,-0.016C0.411,-0.016 0.471,-0.042 0.512,-0.093C0.554,-0.144 0.575,-0.214 0.575,-0.302L0.575,-0.41Z" style="fill:white;fill-rule:nonzero;"/>
        </g>
        <g transform="matrix(150,0,0,150,685.65,639.751)">
            <path d="M0.122,-0.333L0.122,0L0.095,0L0.095,-0.71L0.322,-0.71C0.397,-0.71 0.454,-0.694 0.495,-0.662C0.535,-0.629 0.555,-0.582 0.555,-0.52C0.555,-0.48 0.542,-0.444 0.517,-0.411C0.491,-0.378 0.456,-0.357 0.412,-0.347C0.463,-0.338 0.5,-0.32 0.522,-0.291C0.544,-0.262 0.555,-0.226 0.555,-0.181L0.555,-0.114C0.555,-0.092 0.558,-0.072 0.563,-0.055C0.569,-0.037 0.577,-0.023 0.59,-0.012L0.59,0L0.564,0C0.552,-0.013 0.543,-0.029 0.538,-0.049C0.532,-0.069 0.529,-0.091 0.529,-0.115L0.529,-0.18C0.529,-0.228 0.512,-0.266 0.479,-0.293C0.446,-0.32 0.399,-0.333 0.338,-0.333L0.122,-0.333ZM0.122,-0.36L0.317,-0.36C0.389,-0.36 0.443,-0.375 0.477,-0.406C0.512,-0.436 0.529,-0.474 0.529,-0.52C0.529,-0.573 0.511,-0.614 0.477,-0.642C0.442,-0.67 0.39,-0.684 0.322,-0.684L0.122,-0.684L0.122,-0.36Z" style="fill:white;fill-rule:nonzero;"/>
        </g>
    </g>
    <g transform="matrix(1,0,0,1,810.358,-370.1)">
        <g transform="matrix(150,0,0,150,499.908,639.751)">
            <path d="M0.524,-0.17C0.524,-0.215 0.508,-0.251 0.475,-0.277C0.443,-0.304 0.386,-0.328 0.305,-0.351C0.224,-0.372 0.165,-0.397 0.127,-0.425C0.09,-0.453 0.071,-0.493 0.071,-0.547C0.071,-0.6 0.093,-0.642 0.137,-0.674C0.181,-0.705 0.238,-0.721 0.307,-0.721C0.376,-0.721 0.433,-0.702 0.477,-0.663C0.521,-0.624 0.542,-0.575 0.541,-0.514L0.54,-0.511L0.517,-0.511C0.517,-0.564 0.498,-0.608 0.458,-0.643C0.419,-0.677 0.369,-0.695 0.307,-0.695C0.242,-0.695 0.191,-0.68 0.154,-0.652C0.116,-0.623 0.097,-0.588 0.097,-0.548C0.097,-0.507 0.113,-0.474 0.144,-0.447C0.175,-0.421 0.231,-0.397 0.313,-0.376C0.391,-0.355 0.451,-0.33 0.491,-0.3C0.531,-0.269 0.551,-0.227 0.551,-0.171C0.551,-0.115 0.528,-0.071 0.482,-0.038C0.437,-0.006 0.379,0.01 0.31,0.01C0.239,0.01 0.177,-0.006 0.126,-0.04C0.075,-0.073 0.05,-0.126 0.051,-0.197L0.052,-0.2L0.074,-0.2C0.074,-0.136 0.098,-0.089 0.146,-0.06C0.193,-0.031 0.248,-0.016 0.31,-0.016C0.373,-0.016 0.424,-0.03 0.464,-0.059C0.504,-0.088 0.524,-0.125 0.524,-0.17Z" style="fill:white;fill-rule:nonzero;"/>
        </g>
        <g transform="matrix(150,0,0,150,589.483,639.751)">
            <path d="M0.604,0L0.578,0L0.578,-0.339L0.124,-0.339L0.124,0L0.098,0L0.098,-0.711L0.124,-0.711L0.124,-0.366L0.578,-0.366L0.578,-0.711L0.604,-0.711L0.604,0Z" style="fill:white;fill-rule:nonzero;"/>
        </g>
        <g transform="matrix(150,0,0,150,694.805,639.751)">
            <path d="M0.601,-0.302C0.601,-0.206 0.577,-0.13 0.53,-0.074C0.482,-0.018 0.417,0.01 0.333,0.01C0.25,0.01 0.184,-0.018 0.136,-0.074C0.089,-0.13 0.065,-0.206 0.065,-0.302L0.065,-0.409C0.065,-0.504 0.089,-0.58 0.136,-0.637C0.183,-0.693 0.249,-0.721 0.333,-0.721C0.416,-0.721 0.481,-0.693 0.529,-0.637C0.577,-0.58 0.601,-0.504 0.601,-0.409L0.601,-0.302ZM0.575,-0.41C0.575,-0.497 0.554,-0.566 0.512,-0.618C0.47,-0.669 0.41,-0.695 0.333,-0.695C0.255,-0.695 0.196,-0.669 0.154,-0.618C0.113,-0.566 0.092,-0.497 0.092,-0.41L0.092,-0.302C0.092,-0.214 0.113,-0.145 0.155,-0.093C0.196,-0.042 0.256,-0.016 0.333,-0.016C0.411,-0.016 0.471,-0.042 0.512,-0.093C0.554,-0.144 0.575,-0.214 0.575,-0.302L0.575,-0.41Z" style="fill:white;fill-rule:nonzero;"/>
        </g>
        <g transform="matrix(150,0,0,150,794.708,639.751)">
            <path d="M0.122,-0.333L0.122,0L0.095,0L0.095,-0.71L0.322,-0.71C0.397,-0.71 0.454,-0.694 0.495,-0.662C0.535,-0.629 0.555,-0.582 0.555,-0.52C0.555,-0.48 0.542,-0.444 0.517,-0.411C0.491,-0.378 0.456,-0.357 0.412,-0.347C0.463,-0.338 0.5,-0.32 0.522,-0.291C0.544,-0.262 0.555,-0.226 0.555,-0.181L0.555,-0.114C0.555,-0.092 0.558,-0.072 0.563,-0.055C0.569,-0.037 0.577,-0.023 0.59,-0.012L0.59,0L0.564,0C0.552,-0.013 0.543,-0.029 0.538,-0.049C0.532,-0.069 0.529,-0.091 0.529,-0.115L0.529,-0.18C0.529,-0.228 0.512,-0.266 0.479,-0.293C0.446,-0.32 0.399,-0.333 0.338,-0.333L0.122,-0.333ZM0.122,-0.36L0.317,-0.36C0.389,-0.36 0.443,-0.375 0.477,-0.406C0.512,-0.436 0.529,-0.474 0.529,-0.52C0.529,-0.573 0.511,-0.614 0.477,-0.642C0.442,-0.67 0.39,-0.684 0.322,-0.684L0.122,-0.684L0.122,-0.36Z" style="fill:white;fill-rule:nonzero;"/>
        </g>
        <g transform="matrix(150,0,0,150,886.993,639.751)">
            <path d="M0.571,-0.685L0.312,-0.685L0.312,0L0.286,0L0.286,-0.685L0.027,-0.685L0.027,-0.711L0.571,-0.711L0.571,-0.685Z" style="fill:white;fill-rule:nonzero;"/>
        </g>
    </g>
    <g transform="matrix(1,0,0,1,151.086,-9.32126)">
        <g transform="matrix(150,0,0,150,499.908,639.751)">
            <path d="M0.61,0L0.583,0L0.127,-0.662L0.125,-0.661L0.125,0L0.098,0L0.098,-0.711L0.125,-0.711L0.581,-0.05L0.583,-0.051L0.583,-0.711L0.61,-0.711L0.61,0Z" style="fill:white;fill-rule:nonzero;"/>
        </g>
        <g transform="matrix(150,0,0,150,606.036,639.751)">
            <path d="M0.601,-0.302C0.601,-0.206 0.577,-0.13 0.53,-0.074C0.482,-0.018 0.417,0.01 0.333,0.01C0.25,0.01 0.184,-0.018 0.136,-0.074C0.089,-0.13 0.065,-0.206 0.065,-0.302L0.065,-0.409C0.065,-0.504 0.089,-0.58 0.136,-0.637C0.183,-0.693 0.249,-0.721 0.333,-0.721C0.416,-0.721 0.481,-0.693 0.529,-0.637C0.577,-0.58 0.601,-0.504 0.601,-0.409L0.601,-0.302ZM0.575,-0.41C0.575,-0.497 0.554,-0.566 0.512,-0.618C0.47,-0.669 0.41,-0.695 0.333,-0.695C0.255,-0.695 0.196,-0.669 0.154,-0.618C0.113,-0.566 0.092,-0.497 0.092,-0.41L0.092,-0.302C0.092,-0.214 0.113,-0.145 0.155,-0.093C0.196,-0.042 0.256,-0.016 0.333,-0.016C0.411,-0.016 0.471,-0.042 0.512,-0.093C0.554,-0.144 0.575,-0.214 0.575,-0.302L0.575,-0.41Z" style="fill:white;fill-rule:nonzero;"/>
        </g>
        <g transform="matrix(150,0,0,150,705.938,639.751)">
            <path d="M0.61,0L0.583,0L0.127,-0.662L0.125,-0.661L0.125,0L0.098,0L0.098,-0.711L0.125,-0.711L0.581,-0.05L0.583,-0.051L0.583,-0.711L0.61,-0.711L0.61,0Z" style="fill:white;fill-rule:nonzero;"/>
        </g>
        <g transform="matrix(150,0,0,150,812.066,639.751)">
            <rect x="0.03" y="-0.319" width="0.229" height="0.026" style="fill:white;fill-rule:nonzero;"/>
        </g>
        <g transform="matrix(150,0,0,150,856.524,639.751)">
            <path d="M0.207,-0.161L0.237,-0.049L0.24,-0.049L0.271,-0.161L0.439,-0.711L0.468,-0.711L0.635,-0.161L0.666,-0.049L0.668,-0.049L0.7,-0.161L0.847,-0.711L0.875,-0.711L0.684,0L0.654,0L0.478,-0.593L0.455,-0.664L0.452,-0.664L0.429,-0.593L0.251,0L0.222,0L0.03,-0.711L0.059,-0.711L0.207,-0.161Z" style="fill:white;fill-rule:nonzero;"/>
        </g>
        <g transform="matrix(150,0,0,150,992.389,639.751)">
            <path d="M0.601,-0.302C0.601,-0.206 0.577,-0.13 0.53,-0.074C0.482,-0.018 0.417,0.01 0.333,0.01C0.25,0.01 0.184,-0.018 0.136,-0.074C0.089,-0.13 0.065,-0.206 0.065,-0.302L0.065,-0.409C0.065,-0.504 0.089,-0.58 0.136,-0.637C0.183,-0.693 0.249,-0.721 0.333,-0.721C0.416,-0.721 0.481,-0.693 0.529,-0.637C0.577,-0.58 0.601,-0.504 0.601,-0.409L0.601,-0.302ZM0.575,-0.41C0.575,-0.497 0.554,-0.566 0.512,-0.618C0.47,-0.669 0.41,-0.695 0.333,-0.695C0.255,-0.695 0.196,-0.669 0.154,-0.618C0.113,-0.566 0.092,-0.497 0.092,-0.41L0.092,-0.302C0.092,-0.214 0.113,-0.145 0.155,-0.093C0.196,-0.042 0.256,-0.016 0.333,-0.016C0.411,-0.016 0.471,-0.042 0.512,-0.093C0.554,-0.144 0.575,-0.214 0.575,-0.302L0.575,-0.41Z" style="fill:white;fill-rule:nonzero;"/>
        </g>
        <g transform="matrix(150,0,0,150,1092.29,639.751)">
            <path d="M0.207,-0.161L0.237,-0.049L0.24,-0.049L0.271,-0.161L0.439,-0.711L0.468,-0.711L0.635,-0.161L0.666,-0.049L0.668,-0.049L0.7,-0.161L0.847,-0.711L0.875,-0.711L0.684,0L0.654,0L0.478,-0.593L0.455,-0.664L0.452,-0.664L0.429,-0.593L0.251,0L0.222,0L0.03,-0.711L0.059,-0.711L0.207,-0.161Z" style="fill:white;fill-rule:nonzero;"/>
        </g>
    </g>
</svg>
