<?xml version="1.0" encoding="UTF-8" standalone="no"?>
<!DOCTYPE svg PUBLIC "-//W3C//DTD SVG 1.1//EN" "http://www.w3.org/Graphics/SVG/1.1/DTD/svg11.dtd">
<svg width="100%" height="100%" viewBox="0 0 300 300" version="1.1" xmlns="http://www.w3.org/2000/svg" xmlns:xlink="http://www.w3.org/1999/xlink" xml:space="preserve" xmlns:serif="http://www.serif.com/" style="fill-rule:evenodd;clip-rule:evenodd;stroke-linejoin:round;stroke-miterlimit:2;">
    <g transform="matrix(1,0,0,1,-4463,0)">
        <g id="Artboard8" transform="matrix(1,0,0,1,-0.854962,0)">
            <rect x="4463.86" y="0" width="300" height="300" style="fill:none;"/>
            <g transform="matrix(2.71744,0,0,2.71744,-23691,-3052.81)">
                <path d="M10458.7,1158.27C10458.7,1145.9 10448.7,1135.85 10436.3,1135.85L10395.6,1135.85C10383.3,1135.85 10373.2,1145.9 10373.2,1158.27L10373.2,1198.95C10373.2,1211.33 10383.3,1221.37 10395.6,1221.37C10395.6,1221.37 10436.3,1221.37 10436.3,1221.37C10448.7,1221.37 10458.7,1211.33 10458.7,1198.95C10458.7,1198.95 10458.7,1158.27 10458.7,1158.27ZM10454.6,1158.27L10454.6,1198.95C10454.6,1209.03 10446.4,1217.2 10436.3,1217.2L10395.6,1217.2C10385.6,1217.2 10377.4,1209.03 10377.4,1198.95C10377.4,1198.95 10377.4,1158.27 10377.4,1158.27C10377.4,1148.2 10385.6,1140.02 10395.6,1140.02C10395.6,1140.02 10436.3,1140.02 10436.3,1140.02C10446.4,1140.02 10454.6,1148.2 10454.6,1158.27Z"/>
            </g>
            <g transform="matrix(5.19779,0,0,5.19779,-42091.5,-6339.63)">
                <path d="M9000.15,1252.89L8993.5,1252.89C8992.9,1252.89 8992.41,1253.38 8992.41,1253.98C8992.41,1254.58 8992.9,1255.07 8993.5,1255.07L9000.15,1255.07C9000.75,1255.07 9001.24,1254.58 9001.24,1253.98C9001.24,1253.38 9000.75,1252.89 9000.15,1252.89Z"/>
            </g>
            <g transform="matrix(5.16764,0.559042,-0.559042,5.16764,-41128.6,-11324.8)">
                <path d="M8981.71,1236.42L8984.71,1240.61C8985.06,1241.1 8985.74,1241.21 8986.23,1240.86C8986.72,1240.51 8986.83,1239.83 8986.48,1239.34L8983.48,1235.15C8983.13,1234.66 8982.44,1234.55 8981.96,1234.9C8981.47,1235.25 8981.36,1235.93 8981.71,1236.42Z"/>
            </g>
            <g transform="matrix(-4.32282,-1.22067,1.22067,3.49484,41880.8,6851.15)">
                <path d="M8980.77,1231L8986.16,1239.36C8986.81,1240.36 8986.88,1241.38 8986.33,1241.63C8985.77,1241.89 8984.8,1241.28 8984.16,1240.29L8978.76,1231.92C8978.12,1230.92 8978.04,1229.9 8978.6,1229.65C8979.15,1229.39 8980.12,1230 8980.77,1231Z"/>
            </g>
            <g transform="matrix(5.19779,0,0,5.19779,-42091.5,-6339.63)">
                <path d="M8987.63,1235.26L8977.64,1253.45C8977.35,1253.98 8977.55,1254.64 8978.07,1254.93C8978.6,1255.22 8979.26,1255.03 8979.55,1254.5L8989.54,1236.31C8989.83,1235.79 8989.63,1235.12 8989.11,1234.83C8988.58,1234.54 8987.92,1234.74 8987.63,1235.26Z"/>
            </g>
            <g transform="matrix(5.19779,0,0,5.19779,-42091.5,-6339.63)">
                <path d="M8971.09,1255.07L8987.62,1255.07C8988.23,1255.07 8988.71,1254.58 8988.71,1253.98C8988.71,1253.38 8988.23,1252.89 8987.62,1252.89L8971.09,1252.89C8970.49,1252.89 8970,1253.38 8970,1253.98C8970,1254.58 8970.49,1255.07 8971.09,1255.07Z"/>
            </g>
            <g transform="matrix(5.19779,0,0,5.19779,-42091.5,-6339.63)">
                <path d="M8998.14,1260.76L8989.54,1245.25C8989.24,1244.72 8988.58,1244.53 8988.06,1244.82C8987.53,1245.12 8987.34,1245.78 8987.63,1246.3L8996.23,1261.82C8996.53,1262.34 8997.19,1262.53 8997.72,1262.24C8998.24,1261.95 8998.43,1261.28 8998.14,1260.76Z"/>
            </g>
        </g>
    </g>
</svg>
