<?xml version="1.0" encoding="UTF-8" standalone="no"?>
<!DOCTYPE svg PUBLIC "-//W3C//DTD SVG 1.1//EN" "http://www.w3.org/Graphics/SVG/1.1/DTD/svg11.dtd">
<svg width="100%" height="100%" viewBox="0 0 300 300" version="1.1" xmlns="http://www.w3.org/2000/svg" xmlns:xlink="http://www.w3.org/1999/xlink" xml:space="preserve" xmlns:serif="http://www.serif.com/" style="fill-rule:evenodd;clip-rule:evenodd;stroke-linecap:round;stroke-linejoin:round;stroke-miterlimit:1.5;">
    <g transform="matrix(1,0,0,1,-4472.68,-954.137)">
        <g id="Artboard10" transform="matrix(1,0,0,1,-1006.66,954.137)">
            <rect x="5479.33" y="0" width="300" height="300" style="fill:none;"/>
            <g transform="matrix(2.71744,0,0,2.94686,-22677.3,-3052.81)">
                <g transform="matrix(1,0,0,0.922148,0.64987,0)">
                    <path d="M10456.7,1158.27C10456.7,1147.05 10447.6,1137.93 10436.3,1137.93L10395.6,1137.93C10384.4,1137.93 10375.3,1147.05 10375.3,1158.27L10375.3,1198.95C10375.3,1210.17 10384.4,1219.29 10395.6,1219.29L10436.3,1219.29C10447.6,1219.29 10456.7,1210.17 10456.7,1198.95L10456.7,1158.27Z" style="fill:none;stroke:black;stroke-width:4.17px;"/>
                </g>
                <g transform="matrix(1,0,0,0.922148,0.64987,0)">
                    <circle cx="10401.7" cy="1162.87" r="7.463" style="fill:none;stroke:black;stroke-width:4.17px;"/>
                </g>
                <g transform="matrix(1,0,0,0.922148,0.64987,0)">
                    <path d="M10390.6,1219.29L10428.3,1170.33L10456.7,1192.52" style="fill:none;stroke:black;stroke-width:4.17px;"/>
                </g>
            </g>
        </g>
    </g>
</svg>
