<?xml version="1.0" encoding="UTF-8" standalone="no"?>
<!DOCTYPE svg PUBLIC "-//W3C//DTD SVG 1.1//EN" "http://www.w3.org/Graphics/SVG/1.1/DTD/svg11.dtd">
<svg width="100%" height="100%" viewBox="0 0 300 300" version="1.1" xmlns="http://www.w3.org/2000/svg" xmlns:xlink="http://www.w3.org/1999/xlink" xml:space="preserve" xmlns:serif="http://www.serif.com/" style="fill-rule:evenodd;clip-rule:evenodd;stroke-linejoin:round;stroke-miterlimit:2;">
    <g transform="matrix(1,0,0,1,-3947,0)">
        <g id="Artboard4" transform="matrix(1,0,0,1,-0.333333,0)">
            <rect x="3947.33" y="0" width="300" height="300" style="fill:none;"/>
            <g transform="matrix(1,0,0,1,-3.0615,-2.79393)">
                <ellipse cx="4024.98" cy="66.865" rx="26.889" ry="25.031" style="fill:rgb(83,112,182);"/>
            </g>
            <g transform="matrix(1,0,0,1,0.333333,0)">
                <rect x="3996.93" y="111.028" width="47.541" height="148.544" style="fill:rgb(83,112,182);"/>
            </g>
            <g transform="matrix(1,0,0,1,0.333333,0)">
                <path d="M4119.37,128.562C4123.2,123.198 4136.69,107.177 4161.27,107.177C4190.79,107.177 4217.57,127.59 4217.57,164.297C4217.57,201.004 4218.14,257.418 4218.14,257.418L4168.55,257.418L4168.66,173.096C4168.66,173.096 4169.02,145.533 4143.65,145.533C4129.07,145.533 4121.93,156.831 4119.37,162.179L4119.37,259.572L4071.83,259.572L4071.83,111.028L4119.37,111.028L4119.37,128.562Z" style="fill:rgb(83,112,182);"/>
            </g>
        </g>
    </g>
</svg>
