<?xml version="1.0" encoding="UTF-8" standalone="no"?>
<!DOCTYPE svg PUBLIC "-//W3C//DTD SVG 1.1//EN" "http://www.w3.org/Graphics/SVG/1.1/DTD/svg11.dtd">
<svg width="100%" height="100%" viewBox="0 0 349 212" version="1.1" xmlns="http://www.w3.org/2000/svg" xmlns:xlink="http://www.w3.org/1999/xlink" xml:space="preserve" xmlns:serif="http://www.serif.com/" style="fill-rule:evenodd;clip-rule:evenodd;stroke-linecap:round;stroke-linejoin:round;stroke-miterlimit:1.5;">
    <g transform="matrix(0.666667,0,0,0.666667,0,0)">
        <g id="Artboard1" transform="matrix(0.290556,0,0,0.117407,0,0)">
            <rect x="0" y="0" width="1800" height="2700" style="fill:none;"/>
            <clipPath id="_clip1">
                <rect x="0" y="0" width="1800" height="2700"/>
            </clipPath>
            <g clip-path="url(#_clip1)">
                <g transform="matrix(3.44168,0,0,9.0568,-38004.2,-1732.59)">
                    <g transform="matrix(3.34903,0,0,3.14955,-26002.1,-110.52)">
                        <g transform="matrix(37.5,0,0,37.5,11061.1,151.927)">
                            <path d="M0.441,-0.003L0.274,-0.697L0.324,-0.697L0.324,-0.7L0.149,-0.7L0.149,-0.697L0.198,-0.697L0.005,-0L0.32,-0.12L0.349,-0.003L0.299,-0.003L0.299,-0L0.493,-0L0.493,-0.003L0.441,-0.003ZM0.043,-0.104L0.193,-0.649L0.318,-0.126L0.1,-0.045C0.093,-0.042 0.087,-0.041 0.081,-0.041C0.055,-0.041 0.034,-0.065 0.043,-0.104Z" style="fill:rgb(83,112,182);fill-rule:nonzero;"/>
                        </g>
                        <g transform="matrix(37.5,0,0,37.5,11079.8,151.927)">
                            <path d="M0.101,-0.003L0.101,-0.671L0.366,-0L0.464,-0L0.464,-0.697L0.542,-0.697L0.542,-0.7L0.373,-0.7L0.373,-0.697L0.452,-0.697L0.452,-0.028L0.187,-0.7L0.01,-0.7L0.01,-0.697L0.088,-0.697L0.088,-0.003L0.01,-0.003L0.01,-0L0.179,-0L0.179,-0.003L0.101,-0.003Z" style="fill:rgb(83,112,182);fill-rule:nonzero;"/>
                        </g>
                        <g transform="matrix(37.5,0,0,37.5,11100.6,151.927)">
                            <path d="M0.518,-0.35C0.518,-0.556 0.405,-0.7 0.213,-0.7L0.01,-0.7L0.01,-0.697L0.058,-0.697L0.058,-0.003L0.01,-0.003L0.01,-0L0.213,-0C0.418,-0 0.518,-0.155 0.518,-0.35ZM0.149,-0.697L0.203,-0.697C0.356,-0.697 0.424,-0.537 0.424,-0.35C0.424,-0.203 0.385,-0.003 0.203,-0.003L0.149,-0.003L0.149,-0.697Z" style="fill:rgb(83,112,182);fill-rule:nonzero;"/>
                        </g>
                        <g transform="matrix(37.5,0,0,37.5,11120.2,151.927)">
                            <path d="M0.435,-0.236C0.38,-0.014 0.336,-0.003 0.152,-0.003L0.152,-0.349L0.164,-0.349C0.287,-0.349 0.311,-0.317 0.311,-0.206L0.316,-0.206L0.316,-0.494L0.311,-0.494C0.311,-0.398 0.287,-0.351 0.164,-0.354L0.152,-0.354L0.152,-0.697C0.336,-0.697 0.38,-0.686 0.435,-0.464L0.441,-0.464L0.393,-0.7L0.01,-0.7L0.01,-0.697L0.061,-0.697L0.061,-0.003L0.01,-0.003L0.01,-0L0.393,-0L0.441,-0.236L0.435,-0.236Z" style="fill:rgb(83,112,182);fill-rule:nonzero;"/>
                        </g>
                        <g transform="matrix(37.5,0,0,37.5,11137.1,151.927)">
                            <path d="M0.544,-0.061L0.541,-0.061C0.538,0.012 0.481,0.009 0.475,0.009C0.423,0.007 0.406,-0.093 0.406,-0.176C0.406,-0.306 0.349,-0.365 0.264,-0.37C0.346,-0.38 0.435,-0.434 0.435,-0.534C0.435,-0.647 0.344,-0.7 0.244,-0.7L0.01,-0.7L0.01,-0.697L0.067,-0.697L0.067,-0.003L0.017,-0.003L0.017,-0L0.209,-0L0.209,-0.003L0.158,-0.003L0.158,-0.368L0.241,-0.368C0.284,-0.366 0.333,-0.344 0.333,-0.211C0.333,-0.038 0.401,0.012 0.475,0.012C0.507,0.012 0.545,-0.008 0.544,-0.061ZM0.158,-0.697L0.234,-0.697C0.309,-0.697 0.361,-0.633 0.361,-0.534C0.361,-0.434 0.312,-0.374 0.24,-0.371L0.158,-0.371L0.158,-0.697Z" style="fill:rgb(83,112,182);fill-rule:nonzero;"/>
                        </g>
                        <g transform="matrix(37.5,0,0,37.5,11158.5,151.927)">
                            <path d="M0.43,-0.142C0.43,-0.226 0.389,-0.289 0.265,-0.393C0.147,-0.495 0.1,-0.516 0.1,-0.592C0.1,-0.669 0.159,-0.696 0.216,-0.696C0.297,-0.696 0.374,-0.691 0.409,-0.465L0.415,-0.464L0.383,-0.691C0.383,-0.691 0.27,-0.701 0.222,-0.701C0.133,-0.701 0.01,-0.672 0.01,-0.568C0.01,-0.48 0.074,-0.436 0.176,-0.35C0.267,-0.274 0.345,-0.215 0.345,-0.116C0.345,-0.049 0.281,-0.005 0.23,-0.005C0.08,-0.005 0.032,-0.144 0.018,-0.302L0.013,-0.303L0.024,-0.064C0.024,-0.064 0.118,0.001 0.22,0.001C0.322,0.001 0.43,-0.037 0.43,-0.142Z" style="fill:rgb(83,112,182);fill-rule:nonzero;"/>
                        </g>
                        <g transform="matrix(37.5,0,0,37.5,11176.1,151.927)">
                            <path d="M0.554,-0.347C0.554,-0.588 0.411,-0.707 0.281,-0.707C0.152,-0.707 0.006,-0.57 0.006,-0.353C0.006,-0.135 0.118,0.007 0.281,0.007C0.411,0.007 0.554,-0.144 0.554,-0.347ZM0.221,-0.022C0.105,-0.043 0.046,-0.211 0.078,-0.388C0.11,-0.564 0.223,-0.7 0.339,-0.679C0.455,-0.658 0.514,-0.492 0.482,-0.315C0.45,-0.138 0.337,-0.001 0.221,-0.022Z" style="fill:rgb(83,112,182);fill-rule:nonzero;"/>
                        </g>
                        <g transform="matrix(37.5,0,0,37.5,11197.1,151.927)">
                            <path d="M0.101,-0.003L0.101,-0.671L0.366,-0L0.464,-0L0.464,-0.697L0.542,-0.697L0.542,-0.7L0.373,-0.7L0.373,-0.697L0.452,-0.697L0.452,-0.028L0.187,-0.7L0.01,-0.7L0.01,-0.697L0.088,-0.697L0.088,-0.003L0.01,-0.003L0.01,-0L0.179,-0L0.179,-0.003L0.101,-0.003Z" style="fill:rgb(83,112,182);fill-rule:nonzero;"/>
                        </g>
                    </g>
                    <g transform="matrix(1.04231,0,0,0.980228,-325.639,111.049)">
                        <g transform="matrix(0.48074,0,0,1,5734.16,0)">
                            <rect x="11041.7" y="81.872" width="478.798" height="50.151" style="fill:rgb(68,102,176);"/>
                        </g>
                        <g transform="matrix(0.318908,0,0,0.318908,7516.73,88.508)">
                            <g transform="matrix(125.589,0,0,125.589,11077.1,103.537)">
                                <path d="M0.161,-0.625C0.161,-0.652 0.139,-0.675 0.112,-0.675C0.085,-0.675 0.063,-0.652 0.063,-0.625C0.063,-0.598 0.085,-0.576 0.112,-0.576C0.139,-0.576 0.161,-0.598 0.161,-0.625ZM0.157,-0.003L0.157,-0.486L0.066,-0.486L0.066,-0.003L0.015,-0.003L0.015,-0L0.208,-0L0.208,-0.003L0.157,-0.003Z" style="fill:rgb(245,243,244);fill-rule:nonzero;"/>
                            </g>
                            <g transform="matrix(125.589,0,0,125.589,11105.1,103.537)">
                                <path d="M0.554,-0.347C0.554,-0.588 0.411,-0.707 0.281,-0.707C0.152,-0.707 0.006,-0.57 0.006,-0.353C0.006,-0.135 0.118,0.007 0.281,0.007C0.411,0.007 0.554,-0.144 0.554,-0.347ZM0.221,-0.022C0.105,-0.043 0.046,-0.211 0.078,-0.388C0.11,-0.564 0.223,-0.7 0.339,-0.679C0.455,-0.658 0.514,-0.492 0.482,-0.315C0.45,-0.138 0.337,-0.001 0.221,-0.022Z" style="fill:rgb(245,243,244);fill-rule:nonzero;"/>
                            </g>
                            <g transform="matrix(125.589,0,0,125.589,11179.2,103.537)">
                                <path d="M0.43,-0.142C0.43,-0.226 0.389,-0.289 0.265,-0.393C0.147,-0.495 0.1,-0.516 0.1,-0.592C0.1,-0.669 0.159,-0.696 0.216,-0.696C0.297,-0.696 0.374,-0.691 0.409,-0.465L0.415,-0.464L0.383,-0.691C0.383,-0.691 0.27,-0.701 0.222,-0.701C0.133,-0.701 0.01,-0.672 0.01,-0.568C0.01,-0.48 0.074,-0.436 0.176,-0.35C0.267,-0.274 0.345,-0.215 0.345,-0.116C0.345,-0.049 0.281,-0.005 0.23,-0.005C0.08,-0.005 0.032,-0.144 0.018,-0.302L0.013,-0.303L0.024,-0.064C0.024,-0.064 0.118,0.001 0.22,0.001C0.322,0.001 0.43,-0.037 0.43,-0.142Z" style="fill:rgb(245,243,244);fill-rule:nonzero;"/>
                            </g>
                            <g transform="matrix(125.589,0,0,125.589,11265.4,103.537)">
                                <path d="M0.435,-0.236C0.38,-0.014 0.336,-0.003 0.152,-0.003L0.152,-0.349L0.164,-0.349C0.287,-0.349 0.311,-0.317 0.311,-0.206L0.316,-0.206L0.316,-0.494L0.311,-0.494C0.311,-0.398 0.287,-0.351 0.164,-0.354L0.152,-0.354L0.152,-0.697C0.336,-0.697 0.38,-0.686 0.435,-0.464L0.441,-0.464L0.393,-0.7L0.01,-0.7L0.01,-0.697L0.061,-0.697L0.061,-0.003L0.01,-0.003L0.01,-0L0.393,-0L0.441,-0.236L0.435,-0.236Z" style="fill:rgb(245,243,244);fill-rule:nonzero;"/>
                            </g>
                            <g transform="matrix(125.589,0,0,125.589,11322,103.537)">
                                <path d="M0.101,-0.003L0.101,-0.671L0.366,-0L0.464,-0L0.464,-0.697L0.542,-0.697L0.542,-0.7L0.373,-0.7L0.373,-0.697L0.452,-0.697L0.452,-0.028L0.187,-0.7L0.01,-0.7L0.01,-0.697L0.088,-0.697L0.088,-0.003L0.01,-0.003L0.01,-0L0.179,-0L0.179,-0.003L0.101,-0.003Z" style="fill:rgb(245,243,244);fill-rule:nonzero;"/>
                            </g>
                            <g transform="matrix(125.589,0,0,125.589,11391.5,103.537)">
                                <path d="M0.593,-0.064C0.601,-0.07 0.611,-0.073 0.623,-0.073C0.638,-0.073 0.655,-0.068 0.667,-0.06L0.673,-0.057L0.673,-0.275L0.32,-0.275L0.32,-0.27L0.616,-0.27L0.616,-0.123C0.616,-0.1 0.606,-0.084 0.588,-0.069C0.543,-0.032 0.481,-0.009 0.419,-0.009C0.203,-0.009 0.1,-0.181 0.1,-0.35C0.1,-0.545 0.211,-0.689 0.422,-0.689C0.435,-0.689 0.458,-0.686 0.474,-0.684C0.56,-0.669 0.603,-0.397 0.603,-0.397L0.614,-0.397L0.562,-0.68C0.512,-0.694 0.456,-0.701 0.399,-0.701C0.141,-0.701 0.005,-0.55 0.005,-0.352C0.005,-0.158 0.141,-0 0.399,-0C0.48,-0 0.546,-0.026 0.593,-0.064Z" style="fill:rgb(245,243,244);fill-rule:nonzero;"/>
                            </g>
                            <g transform="matrix(125.589,0,0,125.589,11477.4,103.537)">
                                <path d="M0.155,-0.003L0.155,-0.697L0.206,-0.697L0.206,-0.7L0.015,-0.7L0.015,-0.697L0.066,-0.697L0.066,-0.003L0.015,-0.003L0.015,-0L0.206,-0L0.206,-0.003L0.155,-0.003Z" style="fill:rgb(245,243,244);fill-rule:nonzero;"/>
                            </g>
                            <g transform="matrix(125.589,0,0,125.589,11505.1,103.537)">
                                <path d="M0.101,-0.003L0.101,-0.671L0.366,-0L0.464,-0L0.464,-0.697L0.542,-0.697L0.542,-0.7L0.373,-0.7L0.373,-0.697L0.452,-0.697L0.452,-0.028L0.187,-0.7L0.01,-0.7L0.01,-0.697L0.088,-0.697L0.088,-0.003L0.01,-0.003L0.01,-0L0.179,-0L0.179,-0.003L0.101,-0.003Z" style="fill:rgb(245,243,244);fill-rule:nonzero;"/>
                            </g>
                            <g transform="matrix(125.589,0,0,125.589,11574.6,103.537)">
                                <path d="M0.435,-0.236C0.38,-0.014 0.336,-0.003 0.152,-0.003L0.152,-0.349L0.164,-0.349C0.287,-0.349 0.311,-0.317 0.311,-0.206L0.316,-0.206L0.316,-0.494L0.311,-0.494C0.311,-0.398 0.287,-0.351 0.164,-0.354L0.152,-0.354L0.152,-0.697C0.336,-0.697 0.38,-0.686 0.435,-0.464L0.441,-0.464L0.393,-0.7L0.01,-0.7L0.01,-0.697L0.061,-0.697L0.061,-0.003L0.01,-0.003L0.01,-0L0.393,-0L0.441,-0.236L0.435,-0.236Z" style="fill:rgb(245,243,244);fill-rule:nonzero;"/>
                            </g>
                            <g transform="matrix(125.589,0,0,125.589,11631.2,103.537)">
                                <path d="M0.435,-0.236C0.38,-0.014 0.336,-0.003 0.152,-0.003L0.152,-0.349L0.164,-0.349C0.287,-0.349 0.311,-0.317 0.311,-0.206L0.316,-0.206L0.316,-0.494L0.311,-0.494C0.311,-0.398 0.287,-0.351 0.164,-0.354L0.152,-0.354L0.152,-0.697C0.336,-0.697 0.38,-0.686 0.435,-0.464L0.441,-0.464L0.393,-0.7L0.01,-0.7L0.01,-0.697L0.061,-0.697L0.061,-0.003L0.01,-0.003L0.01,-0L0.393,-0L0.441,-0.236L0.435,-0.236Z" style="fill:rgb(245,243,244);fill-rule:nonzero;"/>
                            </g>
                            <g transform="matrix(125.589,0,0,125.589,11687.9,103.537)">
                                <path d="M0.544,-0.061L0.541,-0.061C0.538,0.012 0.481,0.009 0.475,0.009C0.423,0.007 0.406,-0.093 0.406,-0.176C0.406,-0.306 0.349,-0.365 0.264,-0.37C0.346,-0.38 0.435,-0.434 0.435,-0.534C0.435,-0.647 0.344,-0.7 0.244,-0.7L0.01,-0.7L0.01,-0.697L0.067,-0.697L0.067,-0.003L0.017,-0.003L0.017,-0L0.209,-0L0.209,-0.003L0.158,-0.003L0.158,-0.368L0.241,-0.368C0.284,-0.366 0.333,-0.344 0.333,-0.211C0.333,-0.038 0.401,0.012 0.475,0.012C0.507,0.012 0.545,-0.008 0.544,-0.061ZM0.158,-0.697L0.234,-0.697C0.309,-0.697 0.361,-0.633 0.361,-0.534C0.361,-0.434 0.312,-0.374 0.24,-0.371L0.158,-0.371L0.158,-0.697Z" style="fill:rgb(245,243,244);fill-rule:nonzero;"/>
                            </g>
                        </g>
                    </g>
                    <g transform="matrix(1,0,0,0.940437,0,105.879)">
                        <g transform="matrix(0.460879,0,0,0.460879,5907.35,189.47)">
                            <path d="M11142.4,351.442L11556,351.442" style="fill:none;stroke:rgb(83,112,182);stroke-width:2.26px;"/>
                        </g>
                        <g transform="matrix(0.460879,0,0,0.460879,5907.35,194.844)">
                            <path d="M11142.4,351.442L11556,351.442" style="fill:none;stroke:rgb(83,112,182);stroke-width:2.26px;"/>
                        </g>
                    </g>
                    <g transform="matrix(1,0,0,0.940437,332.081,105.879)">
                        <g transform="matrix(0.460879,0,0,0.460879,5907.35,189.47)">
                            <path d="M11142.4,351.442L11556,351.442" style="fill:none;stroke:rgb(83,112,182);stroke-width:2.26px;"/>
                        </g>
                        <g transform="matrix(0.460879,0,0,0.460879,5907.35,194.844)">
                            <path d="M11142.4,351.442L11556,351.442" style="fill:none;stroke:rgb(83,112,182);stroke-width:2.26px;"/>
                        </g>
                    </g>
                    <g transform="matrix(1,0,0,0.940437,11263.3,389.938)">
                        <g transform="matrix(125.589,0,0,125.589,0,92.6845)">
                            <path d="M0.403,-0.236C0.348,-0.012 0.305,-0.003 0.164,-0.003L0.152,-0.003L0.152,-0.697L0.203,-0.697L0.203,-0.7L0.01,-0.7L0.01,-0.697L0.061,-0.697L0.061,-0.003L0.01,-0.003L0.025,-0L0.361,-0L0.409,-0.236L0.403,-0.236Z" style="fill:rgb(83,112,182);fill-rule:nonzero;"/>
                        </g>
                        <g transform="matrix(125.589,0,0,125.589,52.1193,92.6845)">
                            <path d="M0.155,-0.003L0.155,-0.697L0.206,-0.697L0.206,-0.7L0.015,-0.7L0.015,-0.697L0.066,-0.697L0.066,-0.003L0.015,-0.003L0.015,-0L0.206,-0L0.206,-0.003L0.155,-0.003Z" style="fill:rgb(83,112,182);fill-rule:nonzero;"/>
                        </g>
                    </g>
                    <g transform="matrix(0.534903,0,0,0.940437,5135.9,-118.097)">
                        <g transform="matrix(0.460879,0,0,0.460879,5907.35,189.47)">
                            <path d="M11142.4,351.442L11556,351.442" style="fill:none;stroke:rgb(83,112,182);stroke-width:2.82px;"/>
                        </g>
                        <g transform="matrix(0.460879,0,0,0.460879,5907.35,194.844)">
                            <path d="M11142.4,351.442L11556,351.442" style="fill:none;stroke:rgb(83,112,182);stroke-width:2.82px;"/>
                        </g>
                    </g>
                    <g transform="matrix(0.534903,0,0,0.940437,5556.72,-118.097)">
                        <g transform="matrix(0.460879,0,0,0.460879,5907.35,189.47)">
                            <path d="M11142.4,351.442L11556,351.442" style="fill:none;stroke:rgb(83,112,182);stroke-width:2.82px;"/>
                        </g>
                        <g transform="matrix(0.460879,0,0,0.460879,5907.35,194.844)">
                            <path d="M11142.4,351.442L11556,351.442" style="fill:none;stroke:rgb(83,112,182);stroke-width:2.82px;"/>
                        </g>
                    </g>
                </g>
            </g>
        </g>
    </g>
</svg>
