<?xml version="1.0" encoding="UTF-8" standalone="no"?>
<!DOCTYPE svg PUBLIC "-//W3C//DTD SVG 1.1//EN" "http://www.w3.org/Graphics/SVG/1.1/DTD/svg11.dtd">
<svg width="100%" height="100%" viewBox="0 0 300 300" version="1.1" xmlns="http://www.w3.org/2000/svg" xmlns:xlink="http://www.w3.org/1999/xlink" xml:space="preserve" xmlns:serif="http://www.serif.com/" style="fill-rule:evenodd;clip-rule:evenodd;stroke-linecap:round;stroke-linejoin:round;stroke-miterlimit:1.5;">
    <g transform="matrix(1,0,0,1,-4472.68,-490.915)">
        <g id="Artboard9" transform="matrix(1,0,0,1,-498.658,490.915)">
            <rect x="4971.33" y="0" width="300" height="300" style="fill:none;"/>
            <g transform="matrix(1.87968,0,0,2.03837,-11462.3,-2063.95)">
                <g transform="matrix(1,0,0,0.922148,-47.7666,171.318)">
                    <path d="M8935.24,947.907C8935.24,939.815 8928.67,933.246 8920.58,933.246L8820.15,933.246C8812.06,933.246 8805.49,939.815 8805.49,947.907L8805.49,1014.4C8805.49,1022.5 8812.06,1029.07 8820.15,1029.07L8920.58,1029.07C8928.67,1029.07 8935.24,1022.5 8935.24,1014.4L8935.24,947.907Z" style="fill:none;stroke:black;stroke-width:5.99px;"/>
                </g>
                <g transform="matrix(1,0,0,0.922148,0.64987,12.4367)">
                    <path d="M8757.07,1185.9L8886.82,1185.9" style="fill:none;stroke:black;stroke-width:5.99px;"/>
                </g>
                <g transform="matrix(1,0,0,0.922148,2.51788,0)">
                    <path d="M8802.21,1214.85L8802.21,1236.64" style="fill:none;stroke:black;stroke-width:5.99px;"/>
                </g>
                <g transform="matrix(1,0,0,0.922148,38.2784,0)">
                    <path d="M8802.21,1214.85L8802.21,1236.64" style="fill:none;stroke:black;stroke-width:5.99px;"/>
                </g>
                <g transform="matrix(1,0,0,0.922148,2.51788,0)">
                    <path d="M8791.51,1236.64L8848.65,1236.64" style="fill:none;stroke:black;stroke-width:5.99px;"/>
                </g>
            </g>
        </g>
    </g>
</svg>
