<?xml version="1.0" encoding="UTF-8" standalone="no"?>
<!DOCTYPE svg PUBLIC "-//W3C//DTD SVG 1.1//EN" "http://www.w3.org/Graphics/SVG/1.1/DTD/svg11.dtd">
<svg width="100%" height="100%" viewBox="0 0 300 300" version="1.1" xmlns="http://www.w3.org/2000/svg" xmlns:xlink="http://www.w3.org/1999/xlink" xml:space="preserve" xmlns:serif="http://www.serif.com/" style="fill-rule:evenodd;clip-rule:evenodd;stroke-linecap:round;stroke-linejoin:round;stroke-miterlimit:1.5;">
    <g transform="matrix(1,0,0,1,-4957.04,0)">
        <g id="Artboard11" transform="matrix(1,0,0,1,-1030.3,0)">
            <rect x="5987.33" y="0" width="300" height="300" style="fill:none;"/>
            <g transform="matrix(2.71744,0,0,2.71744,-22167.5,-3052.81)">
                <path d="M10456.7,1158.27C10456.7,1147.05 10447.6,1137.93 10436.3,1137.93L10395.6,1137.93C10384.4,1137.93 10375.3,1147.05 10375.3,1158.27L10375.3,1198.95C10375.3,1210.17 10384.4,1219.29 10395.6,1219.29L10436.3,1219.29C10447.6,1219.29 10456.7,1210.17 10456.7,1198.95L10456.7,1158.27Z" style="fill:none;"/>
                <clipPath id="_clip1">
                    <path d="M10456.7,1158.27C10456.7,1147.05 10447.6,1137.93 10436.3,1137.93L10395.6,1137.93C10384.4,1137.93 10375.3,1147.05 10375.3,1158.27L10375.3,1198.95C10375.3,1210.17 10384.4,1219.29 10395.6,1219.29L10436.3,1219.29C10447.6,1219.29 10456.7,1210.17 10456.7,1198.95L10456.7,1158.27Z"/>
                </clipPath>
                <g clip-path="url(#_clip1)">
                    <g transform="matrix(1.62849,0,0,1.64125,-6404.04,-561.073)">
                        <path d="M10309.3,1070.67L10318.4,1061.82L10318.1,1053.81C10318.1,1053.81 10317.9,1051.64 10319.2,1050.03C10320.5,1048.42 10325.3,1043.98 10325.3,1043.98C10325.3,1043.98 10326.8,1042.7 10328.7,1042.7C10330.5,1042.7 10333.8,1042.65 10333.8,1042.65C10333.8,1042.65 10336.4,1043.57 10333.8,1046.16C10331.2,1048.76 10328.8,1050.94 10328.8,1050.94C10328.8,1050.94 10326.2,1054.53 10329.8,1057.7C10333.3,1060.88 10336.1,1059.45 10336.1,1059.45L10341.4,1053.96C10341.4,1053.96 10345.2,1050.57 10345.2,1054.21C10345.2,1057.85 10345,1059.84 10345,1059.84C10345,1059.84 10344.4,1062.54 10341.8,1064.58C10339.3,1066.61 10336.8,1069.05 10336.8,1069.05C10336.8,1069.05 10336.4,1069.95 10334.2,1069.95L10328.7,1069.95C10328.7,1069.95 10327.1,1069.48 10327.1,1069.48C10326.3,1069.4 10317.6,1079.08 10317.6,1079.08L10317.5,1079.03L10308.4,1087.88L10308.8,1095.89C10308.8,1095.89 10308.9,1098.06 10307.6,1099.67C10306.3,1101.28 10301.5,1105.72 10301.5,1105.72C10301.5,1105.72 10300,1107 10298.2,1107C10296.3,1107 10293,1107.05 10293,1107.05C10293,1107.05 10290.4,1106.13 10293,1103.54C10295.6,1100.94 10298,1098.76 10298,1098.76C10298,1098.76 10300.6,1095.17 10297.1,1092C10293.5,1088.82 10290.7,1090.25 10290.7,1090.25L10285.4,1095.74C10285.4,1095.74 10281.7,1099.13 10281.7,1095.49C10281.7,1091.85 10281.8,1089.86 10281.8,1089.86C10281.8,1089.86 10282.5,1087.16 10285,1085.12C10287.5,1083.09 10290.1,1080.65 10290.1,1080.65C10290.1,1080.65 10290.4,1079.75 10292.6,1079.75L10298.1,1079.75C10298.1,1079.75 10299,1079.73 10299.6,1080.26C10300.2,1080.79 10309.3,1070.62 10309.3,1070.62L10309.3,1070.67Z" style="fill:none;stroke:black;stroke-width:2.53px;"/>
                    </g>
                </g>
                <path d="M10456.7,1158.27C10456.7,1147.05 10447.6,1137.93 10436.3,1137.93L10395.6,1137.93C10384.4,1137.93 10375.3,1147.05 10375.3,1158.27L10375.3,1198.95C10375.3,1210.17 10384.4,1219.29 10395.6,1219.29L10436.3,1219.29C10447.6,1219.29 10456.7,1210.17 10456.7,1198.95L10456.7,1158.27Z" style="fill:none;stroke:black;stroke-width:4.17px;"/>
            </g>
        </g>
    </g>
</svg>
