<?xml version="1.0" encoding="UTF-8" standalone="no"?>
<!DOCTYPE svg PUBLIC "-//W3C//DTD SVG 1.1//EN" "http://www.w3.org/Graphics/SVG/1.1/DTD/svg11.dtd">
<svg width="100%" height="100%" viewBox="0 0 300 300" version="1.1" xmlns="http://www.w3.org/2000/svg" xmlns:xlink="http://www.w3.org/1999/xlink" xml:space="preserve" xmlns:serif="http://www.serif.com/" style="fill-rule:evenodd;clip-rule:evenodd;stroke-linecap:round;stroke-linejoin:round;stroke-miterlimit:1.5;">
    <g transform="matrix(1,0,0,1,-3439,-478.426)">
        <g id="Artboard5" transform="matrix(1,0,0,1,-1016.33,478.426)">
            <rect x="4455.33" y="0" width="300" height="300" style="fill:none;"/>
            <g transform="matrix(1.33214,0,0,1.33214,-184.946,-689.676)">
                <path d="M3595.93,572.81C3599.65,572.786 3648.04,572.527 3667.37,575.283C3681.22,577.257 3687.99,587.071 3689.15,598.282C3690.5,611.251 3691.06,623.069 3691.09,628.594C3691.11,632.868 3691.11,635.079 3691.11,635.862L3691.11,636.198C3691.11,636.981 3691.11,639.192 3691.09,643.466C3691.06,648.991 3690.5,660.809 3689.15,673.778C3687.99,684.989 3681.22,694.803 3667.37,696.777C3648.04,699.533 3599.65,699.274 3595.93,699.25C3592.22,699.274 3543.83,699.533 3524.5,696.777C3510.65,694.803 3503.88,684.989 3502.72,673.778C3501.37,660.809 3500.81,648.991 3500.78,643.466C3500.76,639.192 3500.76,636.981 3500.76,636.198L3500.76,635.862C3500.76,635.079 3500.76,632.868 3500.78,628.594C3500.81,623.069 3501.37,611.251 3502.72,598.282C3503.88,587.071 3510.65,577.257 3524.5,575.283C3543.83,572.527 3592.22,572.786 3595.93,572.81ZM3569.76,666.097L3569.76,604.649L3629.15,636.03L3569.76,666.097Z" style="fill:rgb(83,112,182);stroke:black;stroke-opacity:0;stroke-width:0.75px;"/>
            </g>
        </g>
    </g>
</svg>
